<svg viewBox="0 0 1200 340" xmlns="http://www.w3.org/2000/svg">
  <defs>
    <linearGradient id="bg" x1="0%" y1="0%" x2="0%" y2="100%">
      <stop offset="0%" style="stop-color:#0f0a1e;stop-opacity:1" />
      <stop offset="50%" style="stop-color:#13111a;stop-opacity:1" />
      <stop offset="100%" style="stop-color:#0f0a1e;stop-opacity:1" />
    </linearGradient>
    <linearGradient id="titleGrad" x1="0%" y1="0%" x2="100%" y2="0%">
      <stop offset="0%" style="stop-color:#7C3AED" />
      <stop offset="50%" style="stop-color:#C4B5FD" />
      <stop offset="100%" style="stop-color:#7C3AED" />
    </linearGradient>
    <linearGradient id="accentGrad" x1="0%" y1="0%" x2="100%" y2="0%">
      <stop offset="0%" style="stop-color:#7C3AED;stop-opacity:0" />
      <stop offset="50%" style="stop-color:#7C3AED;stop-opacity:0.5" />
      <stop offset="100%" style="stop-color:#7C3AED;stop-opacity:0" />
    </linearGradient>
    <linearGradient id="nodeWire" x1="0%" y1="0%" x2="100%" y2="0%">
      <stop offset="0%" style="stop-color:#22D3EE;stop-opacity:0.8" />
      <stop offset="100%" style="stop-color:#7C3AED;stop-opacity:0.8" />
    </linearGradient>
    <linearGradient id="flowGrad" x1="0%" y1="0%" x2="100%" y2="0%">
      <stop offset="0%" style="stop-color:#22D3EE" />
      <stop offset="100%" style="stop-color:#A78BFA" />
    </linearGradient>
    <filter id="softGlow">
      <feGaussianBlur stdDeviation="2" result="coloredBlur"/>
      <feMerge>
        <feMergeNode in="coloredBlur"/>
        <feMergeNode in="SourceGraphic"/>
      </feMerge>
    </filter>
    <filter id="titleGlow">
      <feGaussianBlur stdDeviation="4" result="blur1"/>
      <feMerge>
        <feMergeNode in="blur1"/>
        <feMergeNode in="SourceGraphic"/>
      </feMerge>
    </filter>
  </defs>

  <!-- Background -->
  <rect width="1200" height="340" fill="url(#bg)"/>

  <!-- Subtle grid pattern -->
  <g opacity="0.05" stroke="#7C3AED" stroke-width="0.5">
    <line x1="0" y1="40" x2="1200" y2="40"/>
    <line x1="0" y1="80" x2="1200" y2="80"/>
    <line x1="0" y1="120" x2="1200" y2="120"/>
    <line x1="0" y1="160" x2="1200" y2="160"/>
    <line x1="0" y1="200" x2="1200" y2="200"/>
    <line x1="0" y1="240" x2="1200" y2="240"/>
    <line x1="0" y1="280" x2="1200" y2="280"/>
    <line x1="100" y1="0" x2="100" y2="340"/>
    <line x1="200" y1="0" x2="200" y2="340"/>
    <line x1="300" y1="0" x2="300" y2="340"/>
    <line x1="400" y1="0" x2="400" y2="340"/>
    <line x1="500" y1="0" x2="500" y2="340"/>
    <line x1="600" y1="0" x2="600" y2="340"/>
    <line x1="700" y1="0" x2="700" y2="340"/>
    <line x1="800" y1="0" x2="800" y2="340"/>
    <line x1="900" y1="0" x2="900" y2="340"/>
    <line x1="1000" y1="0" x2="1000" y2="340"/>
    <line x1="1100" y1="0" x2="1100" y2="340"/>
  </g>

  <!-- Left node cluster (ComfyUI-inspired node boxes) -->
  <g opacity="0.15">
    <rect x="40" y="60" width="120" height="45" rx="6" fill="none" stroke="#22D3EE" stroke-width="1"/>
    <circle cx="160" cy="82" r="4" fill="#22D3EE"/>
    <text x="100" y="87" text-anchor="middle" font-family="'SF Mono', monospace" font-size="9" fill="#22D3EE" letter-spacing="1">DISCOVER</text>

    <rect x="60" y="130" width="120" height="45" rx="6" fill="none" stroke="#A78BFA" stroke-width="1"/>
    <circle cx="60" cy="152" r="4" fill="#A78BFA"/>
    <circle cx="180" cy="152" r="4" fill="#A78BFA"/>
    <text x="120" y="157" text-anchor="middle" font-family="'SF Mono', monospace" font-size="9" fill="#A78BFA" letter-spacing="1">VALIDATE</text>

    <rect x="40" y="200" width="120" height="45" rx="6" fill="none" stroke="#22D3EE" stroke-width="1"/>
    <circle cx="40" cy="222" r="4" fill="#22D3EE"/>
    <text x="100" y="227" text-anchor="middle" font-family="'SF Mono', monospace" font-size="9" fill="#22D3EE" letter-spacing="1">COMPOSE</text>

    <path d="M 160,86 Q 180,115 180,130" fill="none" stroke="url(#nodeWire)" stroke-width="1" opacity="0.6"/>
    <path d="M 60,155 Q 40,180 40,200" fill="none" stroke="url(#nodeWire)" stroke-width="1" opacity="0.6"/>
  </g>

  <!-- Right node cluster -->
  <g opacity="0.15">
    <rect x="1040" y="60" width="120" height="45" rx="6" fill="none" stroke="#A78BFA" stroke-width="1"/>
    <circle cx="1040" cy="82" r="4" fill="#A78BFA"/>
    <text x="1100" y="87" text-anchor="middle" font-family="'SF Mono', monospace" font-size="9" fill="#A78BFA" letter-spacing="1">AUDIT</text>

    <rect x="1020" y="130" width="120" height="45" rx="6" fill="none" stroke="#22D3EE" stroke-width="1"/>
    <circle cx="1020" cy="152" r="4" fill="#22D3EE"/>
    <circle cx="1140" cy="152" r="4" fill="#22D3EE"/>
    <text x="1080" y="157" text-anchor="middle" font-family="'SF Mono', monospace" font-size="9" fill="#22D3EE" letter-spacing="1">DOCUMENT</text>

    <rect x="1040" y="200" width="120" height="45" rx="6" fill="none" stroke="#A78BFA" stroke-width="1"/>
    <circle cx="1160" cy="222" r="4" fill="#A78BFA"/>
    <text x="1100" y="227" text-anchor="middle" font-family="'SF Mono', monospace" font-size="9" fill="#A78BFA" letter-spacing="1">FLOW</text>

    <path d="M 1040,86 Q 1020,115 1020,130" fill="none" stroke="url(#nodeWire)" stroke-width="1" opacity="0.6"/>
    <path d="M 1140,155 Q 1160,180 1160,200" fill="none" stroke="url(#nodeWire)" stroke-width="1" opacity="0.6"/>
  </g>

  <!-- Horizontal accent line -->
  <line x1="200" y1="170" x2="1000" y2="170" stroke="url(#accentGrad)" stroke-width="0.5"/>

  <!-- Corner accents -->
  <g stroke="#7C3AED" stroke-width="1.5" opacity="0.3" filter="url(#softGlow)">
    <polyline points="0,25 25,0" fill="none"/>
    <polyline points="0,45 45,0" fill="none"/>
    <polyline points="1175,0 1200,25" fill="none"/>
    <polyline points="1155,0 1200,45" fill="none"/>
    <polyline points="0,295 25,320" fill="none"/>
    <polyline points="0,315 5,320" fill="none"/>
    <polyline points="1195,320 1200,315" fill="none"/>
    <polyline points="1175,320 1200,295" fill="none"/>
  </g>

  <!-- Flow arrows: left cluster → center → right cluster -->
  <g opacity="0.15">
    <path d="M 180,152 Q 300,152 390,140" fill="none" stroke="url(#flowGrad)" stroke-width="2" stroke-dasharray="4,4"/>
    <path d="M 810,140 Q 900,152 1020,152" fill="none" stroke="url(#flowGrad)" stroke-width="2" stroke-dasharray="4,4"/>
  </g>

  <!-- Prefix: COMFYUI -->
  <text x="600" y="42" text-anchor="middle"
        font-family="'SF Mono', 'Fira Code', 'Cascadia Code', monospace"
        font-size="14" font-weight="400" letter-spacing="10"
        fill="#22D3EE" filter="url(#softGlow)">
    COMFYUI
  </text>

  <!-- Title: TEMPLATE AGENT -->
  <text x="600" y="110" text-anchor="middle"
        font-family="'SF Mono', 'Fira Code', 'Cascadia Code', 'JetBrains Mono', monospace"
        font-size="52" font-weight="700" letter-spacing="6"
        fill="url(#titleGrad)" filter="url(#titleGlow)">
    TEMPLATE AGENT
  </text>

  <!-- Subtitle -->
  <text x="600" y="150" text-anchor="middle"
        font-family="'SF Mono', 'Fira Code', 'Cascadia Code', monospace"
        font-size="13" letter-spacing="4"
        fill="#A78BFA" filter="url(#softGlow)">
    CLAUDE CODE TOOLKIT FOR TEMPLATE CREATION
  </text>

  <!-- Value proposition -->
  <text x="600" y="210" text-anchor="middle"
        font-family="Georgia, 'Times New Roman', serif"
        font-size="14" font-style="italic" letter-spacing="1"
        fill="#22D3EE" opacity="0.8">
    Six agent skills that take you from node discovery to submission-ready templates
  </text>

  <!-- Pipeline flow indicator -->
  <g>
    <text x="280" y="265" text-anchor="middle" font-family="'SF Mono', monospace" font-size="10" fill="#c9d1d9" letter-spacing="2">DISCOVER</text>
    <text x="385" y="265" text-anchor="middle" font-family="'SF Mono', monospace" font-size="10" fill="#A78BFA">&#x2192;</text>
    <text x="460" y="265" text-anchor="middle" font-family="'SF Mono', monospace" font-size="10" fill="#c9d1d9" letter-spacing="2">AUDIT</text>
    <text x="540" y="265" text-anchor="middle" font-family="'SF Mono', monospace" font-size="10" fill="#A78BFA">&#x2192;</text>
    <text x="630" y="265" text-anchor="middle" font-family="'SF Mono', monospace" font-size="10" fill="#c9d1d9" letter-spacing="2">VALIDATE</text>
    <text x="725" y="265" text-anchor="middle" font-family="'SF Mono', monospace" font-size="10" fill="#A78BFA">&#x2192;</text>
    <text x="810" y="265" text-anchor="middle" font-family="'SF Mono', monospace" font-size="10" fill="#c9d1d9" letter-spacing="2">COMPOSE</text>
    <text x="900" y="265" text-anchor="middle" font-family="'SF Mono', monospace" font-size="10" fill="#A78BFA">&#x2192;</text>
    <text x="990" y="265" text-anchor="middle" font-family="'SF Mono', monospace" font-size="10" fill="#c9d1d9" letter-spacing="2">DOCUMENT</text>
  </g>

  <!-- Credits bar -->
  <text x="600" y="315" text-anchor="middle"
        font-family="'SF Mono', monospace" font-size="11" letter-spacing="3" fill="#c9d1d9" opacity="0.5">
    ALVDANSEN LABS  &#xB7;  PROMPTCRAFTED
  </text>
</svg>
